<svg xmlns="http://www.w3.org/2000/svg" xmlns:xlink="http://www.w3.org/1999/xlink" width="500" zoomAndPan="magnify" viewBox="0 0 375 374.999991" height="500" preserveAspectRatio="xMidYMid meet" version="1.0"><defs><g/><clipPath id="be59da294a"><path d="M 102 73 L 272 73 L 272 242.140625 L 102 242.140625 Z M 102 73 " clip-rule="nonzero"/></clipPath><clipPath id="5952abba27"><path d="M 209.191406 246 L 221 246 L 221 256.398438 L 209.191406 256.398438 Z M 209.191406 246 " clip-rule="nonzero"/></clipPath><clipPath id="1d258b0945"><path d="M 139 153 L 159.839844 153 L 159.839844 171.03125 L 139 171.03125 Z M 139 153 " clip-rule="nonzero"/></clipPath></defs><rect x="-37.5" width="450" fill="#ffffff" y="-37.499999" height="449.999989" fill-opacity="1"/><rect x="-37.5" width="450" fill="#ffffff" y="-37.499999" height="449.999989" fill-opacity="1"/><g clip-path="url(#be59da294a)"><path fill="#003a8c" d="M 197.234375 241.679688 C 198.824219 234.300781 198.519531 227.277344 196.609375 218.9375 C 205.441406 219.679688 213.898438 214.5 216.414062 206.210938 C 216.75 204.742188 216.109375 203.726562 215.601562 203.425781 C 213.59375 202.257812 210.960938 200.875 209.355469 199.84375 C 206.925781 187.640625 202.875 185.109375 194.265625 181.226562 L 194.230469 181.207031 C 193.371094 180.785156 193.050781 179.941406 193.082031 179.148438 L 193.335938 174.152344 C 193.453125 171.972656 192.695312 171.316406 190.921875 171.46875 C 160.296875 176.785156 168.386719 208.792969 155.402344 221.488281 C 155.402344 221.488281 155.066406 203.507812 159.152344 189.277344 C 163.234375 175.046875 170.527344 173.882812 170.226562 163.296875 C 169.363281 158.179688 167.710938 154.367188 165.261719 152.121094 C 152.550781 140.488281 134.925781 138.195312 134.589844 115.335938 C 134.539062 111.65625 142.960938 113.175781 149.410156 113.191406 C 155.859375 113.207031 163.777344 109.917969 170.460938 103.722656 C 177.148438 97.542969 197 98.894531 209.273438 103.28125 C 221.546875 107.671875 240.808594 131.457031 237.667969 136.777344 C 234.527344 142.078125 213.898438 154.078125 210.859375 154.570312 C 207.804688 155.058594 201.253906 145.992188 205 136.707031 C 208.75 127.421875 208.75 124.164062 207.214844 119.421875 C 205.660156 114.695312 203.09375 112.261719 203.09375 112.261719 C 203.09375 112.261719 208.125 120.855469 202.382812 133.703125 C 196.660156 146.550781 205.136719 160.882812 208.109375 160.292969 C 211.078125 159.71875 222.085938 153.824219 222.085938 153.824219 C 222.085938 153.824219 228.332031 184.535156 239.269531 200.453125 C 241.414062 203.578125 245.382812 208.234375 250.363281 213.90625 C 262.667969 200.082031 270.535156 182.136719 271.566406 162.199219 C 273.996094 115.65625 238.222656 75.96875 191.664062 73.554688 C 145.105469 71.140625 105.417969 106.910156 103.003906 153.472656 C 100.992188 192.199219 125.421875 226.179688 160.484375 237.898438 C 167.574219 240.261719 175.085938 241.730469 182.921875 242.132812 C 188.238281 242.421875 193.03125 242.066406 197.234375 241.679688 Z M 175.796875 115.101562 C 178.042969 115.21875 179.78125 117.140625 179.660156 119.386719 C 179.542969 121.632812 177.621094 123.371094 175.375 123.253906 C 173.128906 123.136719 171.390625 121.210938 171.507812 118.964844 C 171.625 116.71875 173.550781 114.980469 175.796875 115.101562 Z M 197.828125 203.527344 C 195.714844 203.40625 194.097656 201.617188 194.214844 199.507812 C 194.316406 197.398438 196.121094 195.777344 198.230469 195.894531 C 200.34375 195.996094 201.960938 197.804688 201.84375 199.914062 C 201.726562 202.007812 199.9375 203.628906 197.828125 203.527344 Z M 197.828125 203.527344 " fill-opacity="1" fill-rule="evenodd"/></g><g fill="#003a8c" fill-opacity="1"><g transform="translate(91.653524, 286.189914)"><g><path d="M 22.609375 0.15625 C 17.003906 -0.1875 11.710938 -0.238281 6.734375 0 L 6.40625 0.046875 C 6.195312 0.0664062 5.972656 0.0820312 5.734375 0.09375 C 5.503906 0.113281 5.21875 0.128906 4.875 0.140625 C 4.539062 0.148438 4.253906 0.144531 4.015625 0.125 C 1.984375 -0.0625 0.710938 -0.984375 0.203125 -2.640625 C 0.0351562 -3.203125 0.101562 -3.820312 0.40625 -4.5 C 0.507812 -4.769531 0.6875 -5.097656 0.9375 -5.484375 C 1.28125 -6.023438 1.765625 -6.6875 2.390625 -7.46875 C 3.148438 -8.46875 4.015625 -9.535156 4.984375 -10.671875 L 7.75 -13.875 L 11.078125 -17.453125 L 13.75 -20.578125 L 16.59375 -23.734375 L 16.796875 -24.015625 L 17.171875 -24.46875 L 17.578125 -24.953125 L 11.4375 -24.953125 C 7.976562 -24.953125 5.328125 -24.773438 3.484375 -24.421875 C 2.921875 -24.316406 2.410156 -24.421875 1.953125 -24.734375 C 1.492188 -25.046875 1.207031 -25.476562 1.09375 -26.03125 C 0.988281 -26.582031 1.085938 -27.085938 1.390625 -27.546875 C 1.703125 -28.015625 2.128906 -28.300781 2.671875 -28.40625 C 4.753906 -28.8125 7.675781 -29.015625 11.4375 -29.015625 L 20.53125 -29.015625 C 20.582031 -29.015625 20.632812 -29 20.6875 -28.96875 C 20.800781 -28.945312 20.898438 -28.921875 20.984375 -28.890625 C 21.304688 -28.804688 21.601562 -28.617188 21.875 -28.328125 C 22.570312 -27.515625 22.734375 -26.5 22.359375 -25.28125 C 22.171875 -24.707031 21.847656 -24.070312 21.390625 -23.375 C 21.117188 -22.914062 20.765625 -22.425781 20.328125 -21.90625 L 20 -21.5 C 19.863281 -21.34375 19.785156 -21.25 19.765625 -21.21875 L 10.828125 -11.28125 L 8.078125 -8.078125 L 5.59375 -5.03125 C 5.25 -4.570312 4.976562 -4.207031 4.78125 -3.9375 C 4.976562 -3.9375 5.265625 -3.957031 5.640625 -4 C 6.015625 -4.039062 6.328125 -4.0625 6.578125 -4.0625 C 11.691406 -4.300781 17.113281 -4.242188 22.84375 -3.890625 C 23.414062 -3.867188 23.882812 -3.644531 24.25 -3.21875 C 24.613281 -2.800781 24.78125 -2.304688 24.75 -1.734375 C 24.726562 -1.171875 24.503906 -0.707031 24.078125 -0.34375 C 23.660156 0.0195312 23.171875 0.1875 22.609375 0.15625 Z M 22.609375 0.15625 "/></g></g></g><g fill="#003a8c" fill-opacity="1"><g transform="translate(116.518371, 286.189914)"><g><path d="M 9.984375 -1.828125 C 9.867188 -2.609375 9.800781 -4.363281 9.78125 -7.09375 C 9.75 -8.832031 9.722656 -10 9.703125 -10.59375 L 3.203125 -21.265625 C 2.203125 -22.941406 1.285156 -24.5625 0.453125 -26.125 C 0.179688 -26.613281 0.125 -27.128906 0.28125 -27.671875 C 0.445312 -28.210938 0.769531 -28.617188 1.25 -28.890625 C 1.738281 -29.160156 2.253906 -29.210938 2.796875 -29.046875 C 3.335938 -28.890625 3.742188 -28.566406 4.015625 -28.078125 C 5.234375 -25.804688 7.765625 -21.519531 11.609375 -15.21875 C 12.117188 -16.050781 12.882812 -17.195312 13.90625 -18.65625 C 14.9375 -20.125 15.644531 -21.171875 16.03125 -21.796875 C 16.21875 -22.085938 16.835938 -23.15625 17.890625 -25 C 18.679688 -26.375 19.359375 -27.484375 19.921875 -28.328125 C 20.222656 -28.785156 20.648438 -29.066406 21.203125 -29.171875 C 21.753906 -29.285156 22.257812 -29.1875 22.71875 -28.875 C 23.175781 -28.5625 23.457031 -28.125 23.5625 -27.5625 C 23.675781 -27.007812 23.570312 -26.503906 23.25 -26.046875 C 22.894531 -25.503906 22.285156 -24.476562 21.421875 -22.96875 L 19.515625 -19.6875 C 19.023438 -18.925781 18.101562 -17.578125 16.75 -15.640625 C 15.40625 -13.703125 14.4375 -12.113281 13.84375 -10.875 C 13.8125 -10.789062 13.78125 -10.722656 13.75 -10.671875 C 13.78125 -10.078125 13.8125 -8.898438 13.84375 -7.140625 C 13.863281 -4.597656 13.929688 -2.960938 14.046875 -2.234375 C 14.097656 -1.660156 13.941406 -1.15625 13.578125 -0.71875 C 13.210938 -0.289062 12.75 -0.0507812 12.1875 0 C 11.632812 0.0507812 11.140625 -0.101562 10.703125 -0.46875 C 10.273438 -0.832031 10.035156 -1.285156 9.984375 -1.828125 Z M 9.984375 -1.828125 "/></g></g></g><g fill="#003a8c" fill-opacity="1"><g transform="translate(140.206896, 286.189914)"><g><path d="M 4.421875 -1.21875 C 4.203125 -0.675781 3.828125 -0.296875 3.296875 -0.078125 C 2.773438 0.140625 2.25 0.140625 1.71875 -0.078125 C 1.195312 -0.296875 0.828125 -0.664062 0.609375 -1.1875 C 0.390625 -1.71875 0.390625 -2.242188 0.609375 -2.765625 C 1.148438 -4.085938 1.859375 -6.097656 2.734375 -8.796875 C 3.617188 -11.503906 4.25 -13.332031 4.625 -14.28125 C 4.8125 -14.820312 5.582031 -16.742188 6.9375 -20.046875 C 8.207031 -23.296875 9.195312 -25.929688 9.90625 -27.953125 C 10.09375 -28.492188 10.4375 -28.894531 10.9375 -29.15625 C 11.4375 -29.414062 11.957031 -29.445312 12.5 -29.25 C 12.738281 -29.175781 12.953125 -29.054688 13.140625 -28.890625 C 13.679688 -28.703125 14.0625 -28.335938 14.28125 -27.796875 L 24.390625 -2.84375 C 24.609375 -2.300781 24.609375 -1.765625 24.390625 -1.234375 C 24.171875 -0.710938 23.796875 -0.34375 23.265625 -0.125 C 22.742188 0.09375 22.21875 0.09375 21.6875 -0.125 C 21.15625 -0.34375 20.785156 -0.707031 20.578125 -1.21875 L 17.53125 -9.09375 C 16.414062 -9.039062 15.789062 -9.015625 15.65625 -9.015625 C 12.007812 -8.878906 9.144531 -8.8125 7.0625 -8.8125 C 5.84375 -5.238281 4.960938 -2.707031 4.421875 -1.21875 Z M 8.5625 -12.9375 C 10.832031 -12.96875 13.265625 -13.023438 15.859375 -13.109375 L 12.171875 -22.03125 Z M 8.5625 -12.9375 "/></g></g></g><g fill="#003a8c" fill-opacity="1"><g transform="translate(164.990619, 286.189914)"><g><path d="M 31.15625 -1.90625 C 31.132812 -1.34375 30.921875 -0.867188 30.515625 -0.484375 C 30.109375 -0.109375 29.617188 0.0625 29.046875 0.03125 C 28.484375 0.0078125 28.007812 -0.203125 27.625 -0.609375 C 27.25 -1.015625 27.078125 -1.5 27.109375 -2.0625 C 27.210938 -2.875 27.25 -6.109375 27.21875 -11.765625 C 27.195312 -17.421875 27.1875 -20.65625 27.1875 -21.46875 C 25.101562 -18.757812 22.695312 -15.296875 19.96875 -11.078125 C 19.664062 -10.585938 19.238281 -10.285156 18.6875 -10.171875 C 18.132812 -10.066406 17.628906 -10.164062 17.171875 -10.46875 C 17.140625 -10.5 17.109375 -10.515625 17.078125 -10.515625 C 16.835938 -10.671875 16.632812 -10.859375 16.46875 -11.078125 C 15.332031 -12.671875 13.414062 -15.09375 10.71875 -18.34375 L 8.078125 -21.5 C 8.160156 -19.476562 8.203125 -17.15625 8.203125 -14.53125 C 8.203125 -13.226562 8.179688 -11.179688 8.140625 -8.390625 C 8.097656 -5.609375 8.078125 -3.5 8.078125 -2.0625 C 8.078125 -1.5 7.878906 -1.019531 7.484375 -0.625 C 7.085938 -0.238281 6.601562 -0.046875 6.03125 -0.046875 C 5.46875 -0.046875 4.988281 -0.238281 4.59375 -0.625 C 4.207031 -1.019531 4.015625 -1.5 4.015625 -2.0625 C 4.015625 -3.5 4.035156 -5.609375 4.078125 -8.390625 C 4.117188 -11.179688 4.140625 -13.238281 4.140625 -14.5625 C 4.140625 -19.625 3.976562 -23.695312 3.65625 -26.78125 C 3.601562 -27.351562 3.75 -27.851562 4.09375 -28.28125 C 4.445312 -28.71875 4.910156 -28.960938 5.484375 -29.015625 C 5.753906 -29.035156 6.007812 -29.007812 6.25 -28.9375 C 6.875 -28.90625 7.390625 -28.644531 7.796875 -28.15625 L 13.84375 -20.984375 C 15.539062 -18.953125 16.972656 -17.175781 18.140625 -15.65625 C 21.765625 -21.175781 24.914062 -25.382812 27.59375 -28.28125 C 27.695312 -28.382812 27.804688 -28.476562 27.921875 -28.5625 C 28.347656 -28.96875 28.84375 -29.15625 29.40625 -29.125 C 29.976562 -29.101562 30.453125 -28.890625 30.828125 -28.484375 C 31.210938 -28.078125 31.390625 -27.59375 31.359375 -27.03125 C 31.253906 -24.1875 31.222656 -19.96875 31.265625 -14.375 C 31.304688 -8.789062 31.269531 -4.632812 31.15625 -1.90625 Z M 31.15625 -1.90625 "/></g></g></g><g fill="#003a8c" fill-opacity="1"><g transform="translate(199.996095, 286.189914)"><g><path d="M 4.78125 -4.75 C 4 -5.914062 3.472656 -7.644531 3.203125 -9.9375 C 3.046875 -11.644531 3.003906 -13.660156 3.078125 -15.984375 C 3.140625 -17.503906 3.253906 -19.546875 3.421875 -22.109375 C 3.597656 -24.679688 3.703125 -26.347656 3.734375 -27.109375 C 3.734375 -27.671875 3.9375 -28.140625 4.34375 -28.515625 C 4.75 -28.898438 5.234375 -29.09375 5.796875 -29.09375 C 6.367188 -29.09375 6.84375 -28.890625 7.21875 -28.484375 C 7.601562 -28.078125 7.796875 -27.59375 7.796875 -27.03125 C 7.765625 -26.289062 7.660156 -24.625 7.484375 -22.03125 C 7.304688 -19.4375 7.191406 -17.378906 7.140625 -15.859375 C 7.054688 -13.703125 7.097656 -11.878906 7.265625 -10.390625 C 7.421875 -8.734375 7.703125 -7.609375 8.109375 -7.015625 C 9.054688 -5.660156 10.34375 -4.757812 11.96875 -4.3125 C 13.59375 -3.875 15.207031 -3.9375 16.8125 -4.5 C 18.425781 -5.070312 19.679688 -6.046875 20.578125 -7.421875 C 22.035156 -9.585938 22.804688 -12.550781 22.890625 -16.3125 C 22.910156 -17.664062 22.867188 -19.453125 22.765625 -21.671875 C 22.597656 -24.535156 22.503906 -26.320312 22.484375 -27.03125 C 22.484375 -27.59375 22.671875 -28.078125 23.046875 -28.484375 C 23.421875 -28.890625 23.894531 -29.09375 24.46875 -29.09375 C 25.039062 -29.09375 25.523438 -28.898438 25.921875 -28.515625 C 26.328125 -28.140625 26.53125 -27.671875 26.53125 -27.109375 C 26.5625 -26.453125 26.644531 -24.71875 26.78125 -21.90625 C 26.914062 -19.582031 26.96875 -17.675781 26.9375 -16.1875 C 26.832031 -11.675781 25.847656 -8 23.984375 -5.15625 C 22.953125 -3.613281 21.578125 -2.394531 19.859375 -1.5 C 18.140625 -0.601562 16.375 -0.101562 14.5625 0 C 12.75 0.101562 10.953125 -0.238281 9.171875 -1.03125 C 7.390625 -1.832031 5.925781 -3.070312 4.78125 -4.75 Z M 4.78125 -4.75 "/></g></g></g><g fill="#003a8c" fill-opacity="1"><g transform="translate(229.687878, 286.189914)"><g><path d="M 22.359375 -4.296875 L 21.625 -6.328125 C 21.488281 -6.867188 21.296875 -7.441406 21.046875 -8.046875 C 20.804688 -8.660156 20.554688 -9.171875 20.296875 -9.578125 C 19.773438 -10.304688 19.035156 -10.878906 18.078125 -11.296875 C 17.117188 -11.722656 15.648438 -11.988281 13.671875 -12.09375 C 13.398438 -12.09375 13.128906 -12.078125 12.859375 -12.046875 C 12.585938 -12.046875 12.050781 -12.003906 11.25 -11.921875 C 10.457031 -11.847656 9.882812 -11.796875 9.53125 -11.765625 C 8.78125 -11.679688 8.210938 -11.671875 7.828125 -11.734375 C 7.878906 -7.773438 7.90625 -4.550781 7.90625 -2.0625 C 7.90625 -1.5 7.707031 -1.019531 7.3125 -0.625 C 6.925781 -0.238281 6.445312 -0.046875 5.875 -0.046875 C 5.3125 -0.046875 4.832031 -0.238281 4.4375 -0.625 C 4.050781 -1.019531 3.859375 -1.5 3.859375 -2.0625 C 3.859375 -4.71875 3.820312 -8.703125 3.75 -14.015625 C 3.6875 -19.335938 3.65625 -23.320312 3.65625 -25.96875 C 3.65625 -26.425781 3.800781 -26.847656 4.09375 -27.234375 C 4.175781 -27.609375 4.363281 -27.929688 4.65625 -28.203125 C 4.957031 -28.472656 5.3125 -28.632812 5.71875 -28.6875 C 7.257812 -28.925781 8.988281 -29.066406 10.90625 -29.109375 C 12.832031 -29.148438 15.066406 -29.007812 17.609375 -28.6875 C 18.523438 -28.550781 19.382812 -28.367188 20.1875 -28.140625 C 20.988281 -27.910156 21.828125 -27.570312 22.703125 -27.125 C 23.578125 -26.675781 24.316406 -26.160156 24.921875 -25.578125 C 25.535156 -25.003906 26.03125 -24.273438 26.40625 -23.390625 C 26.789062 -22.515625 26.957031 -21.535156 26.90625 -20.453125 C 26.789062 -17.503906 25.085938 -15.300781 21.796875 -13.84375 C 22.492188 -13.300781 23.097656 -12.648438 23.609375 -11.890625 C 23.992188 -11.316406 24.359375 -10.609375 24.703125 -9.765625 C 25.054688 -8.929688 25.332031 -8.179688 25.53125 -7.515625 C 25.738281 -6.859375 26 -6.015625 26.3125 -4.984375 C 26.625 -3.960938 26.875 -3.140625 27.0625 -2.515625 C 27.226562 -2.003906 27.175781 -1.5 26.90625 -1 C 26.632812 -0.5 26.234375 -0.164062 25.703125 0 C 25.179688 0.164062 24.664062 0.113281 24.15625 -0.15625 C 23.65625 -0.425781 23.328125 -0.832031 23.171875 -1.375 Z M 8.28125 -16.109375 C 8.46875 -16.140625 8.695312 -16.15625 8.96875 -16.15625 C 9.394531 -16.175781 9.960938 -16.1875 10.671875 -16.1875 C 12.023438 -16.21875 12.890625 -16.21875 13.265625 -16.1875 L 13.671875 -16.1875 C 16.023438 -16.351562 17.960938 -16.71875 19.484375 -17.28125 C 21.671875 -18.070312 22.789062 -19.179688 22.84375 -20.609375 C 22.925781 -22.671875 20.96875 -24.039062 16.96875 -24.71875 C 14.207031 -25.175781 11.117188 -25.226562 7.703125 -24.875 C 7.703125 -22.601562 7.734375 -19.65625 7.796875 -16.03125 Z M 8.28125 -16.109375 "/></g></g></g><g fill="#003a8c" fill-opacity="1"><g transform="translate(258.527848, 286.189914)"><g><path d="M 4.421875 -1.21875 C 4.203125 -0.675781 3.828125 -0.296875 3.296875 -0.078125 C 2.773438 0.140625 2.25 0.140625 1.71875 -0.078125 C 1.195312 -0.296875 0.828125 -0.664062 0.609375 -1.1875 C 0.390625 -1.71875 0.390625 -2.242188 0.609375 -2.765625 C 1.148438 -4.085938 1.859375 -6.097656 2.734375 -8.796875 C 3.617188 -11.503906 4.25 -13.332031 4.625 -14.28125 C 4.8125 -14.820312 5.582031 -16.742188 6.9375 -20.046875 C 8.207031 -23.296875 9.195312 -25.929688 9.90625 -27.953125 C 10.09375 -28.492188 10.4375 -28.894531 10.9375 -29.15625 C 11.4375 -29.414062 11.957031 -29.445312 12.5 -29.25 C 12.738281 -29.175781 12.953125 -29.054688 13.140625 -28.890625 C 13.679688 -28.703125 14.0625 -28.335938 14.28125 -27.796875 L 24.390625 -2.84375 C 24.609375 -2.300781 24.609375 -1.765625 24.390625 -1.234375 C 24.171875 -0.710938 23.796875 -0.34375 23.265625 -0.125 C 22.742188 0.09375 22.21875 0.09375 21.6875 -0.125 C 21.15625 -0.34375 20.785156 -0.707031 20.578125 -1.21875 L 17.53125 -9.09375 C 16.414062 -9.039062 15.789062 -9.015625 15.65625 -9.015625 C 12.007812 -8.878906 9.144531 -8.8125 7.0625 -8.8125 C 5.84375 -5.238281 4.960938 -2.707031 4.421875 -1.21875 Z M 8.5625 -12.9375 C 10.832031 -12.96875 13.265625 -13.023438 15.859375 -13.109375 L 12.171875 -22.03125 Z M 8.5625 -12.9375 "/></g></g></g><g clip-path="url(#5952abba27)"><path fill="#003a8c" d="M 220.378906 249.070312 C 219.773438 245.964844 215.992188 245.914062 215.058594 248.816406 C 214.125 245.914062 210.34375 245.964844 209.742188 249.070312 C 209.195312 251.886719 215.058594 256.328125 215.058594 256.328125 C 215.058594 256.328125 220.925781 251.886719 220.378906 249.070312 Z M 220.378906 249.070312 " fill-opacity="1" fill-rule="nonzero"/></g><g clip-path="url(#1d258b0945)"><path fill="#ffffff" d="M 159.179688 158.046875 C 158.082031 152.40625 151.207031 152.308594 149.511719 157.585938 C 147.816406 152.3125 140.9375 152.40625 139.839844 158.046875 C 138.847656 163.167969 149.511719 171.242188 149.511719 171.242188 C 149.511719 171.242188 160.175781 163.167969 159.179688 158.046875 Z M 159.179688 158.046875 " fill-opacity="1" fill-rule="nonzero"/></g><g fill="#003a8c" fill-opacity="1"><g transform="translate(124.903223, 304.747948)"><g><path d="M 4.515625 0 L 2.546875 -6.453125 L 2.484375 -6.453125 C 2.554688 -5.140625 2.59375 -4.265625 2.59375 -3.828125 L 2.59375 0 L 1.03125 0 L 1.03125 -8.234375 L 3.40625 -8.234375 L 5.359375 -1.9375 L 5.390625 -1.9375 L 7.453125 -8.234375 L 9.84375 -8.234375 L 9.84375 0 L 8.203125 0 L 8.203125 -3.890625 C 8.203125 -4.078125 8.203125 -4.289062 8.203125 -4.53125 C 8.210938 -4.769531 8.242188 -5.410156 8.296875 -6.453125 L 8.25 -6.453125 L 6.125 0 Z M 4.515625 0 "/></g></g></g><g fill="#003a8c" fill-opacity="1"><g transform="translate(139.846909, 304.747948)"><g><path d="M 1.03125 0 L 1.03125 -8.234375 L 2.78125 -8.234375 L 2.78125 0 Z M 1.03125 0 "/></g></g></g><g fill="#003a8c" fill-opacity="1"><g transform="translate(147.742751, 304.747948)"><g><path d="M 7.6875 0 L 5.703125 0 L 3.78125 -3.109375 L 1.875 0 L 0 0 L 2.734375 -4.25 L 0.171875 -8.234375 L 2.09375 -8.234375 L 3.875 -5.265625 L 5.609375 -8.234375 L 7.5 -8.234375 L 4.90625 -4.15625 Z M 7.6875 0 "/></g></g></g><g fill="#003a8c" fill-opacity="1"><g transform="translate(159.508435, 304.747948)"><g/></g></g><g fill="#003a8c" fill-opacity="1"><g transform="translate(166.583061, 304.747948)"><g><path d="M 2.78125 -4.359375 L 3.359375 -4.359375 C 3.890625 -4.359375 4.285156 -4.460938 4.546875 -4.671875 C 4.816406 -4.890625 4.953125 -5.203125 4.953125 -5.609375 C 4.953125 -6.015625 4.84375 -6.3125 4.625 -6.5 C 4.40625 -6.695312 4.054688 -6.796875 3.578125 -6.796875 L 2.78125 -6.796875 Z M 6.71875 -5.671875 C 6.71875 -4.773438 6.441406 -4.09375 5.890625 -3.625 C 5.335938 -3.15625 4.550781 -2.921875 3.53125 -2.921875 L 2.78125 -2.921875 L 2.78125 0 L 1.03125 0 L 1.03125 -8.234375 L 3.671875 -8.234375 C 4.660156 -8.234375 5.414062 -8.015625 5.9375 -7.578125 C 6.457031 -7.148438 6.71875 -6.515625 6.71875 -5.671875 Z M 6.71875 -5.671875 "/></g></g></g><g fill="#003a8c" fill-opacity="1"><g transform="translate(177.898766, 304.747948)"><g><path d="M 5.78125 0 L 1.03125 0 L 1.03125 -8.234375 L 5.78125 -8.234375 L 5.78125 -6.796875 L 2.78125 -6.796875 L 2.78125 -5 L 5.5625 -5 L 5.5625 -3.5625 L 2.78125 -3.5625 L 2.78125 -1.4375 L 5.78125 -1.4375 Z M 5.78125 0 "/></g></g></g><g fill="#003a8c" fill-opacity="1"><g transform="translate(188.432634, 304.747948)"><g><path d="M 4.21875 0 L 2.46875 0 L 2.46875 -6.78125 L 0.234375 -6.78125 L 0.234375 -8.234375 L 6.453125 -8.234375 L 6.453125 -6.78125 L 4.21875 -6.78125 Z M 4.21875 0 "/></g></g></g><g fill="#003a8c" fill-opacity="1"><g transform="translate(199.185863, 304.747948)"><g/></g></g><g fill="#003a8c" fill-opacity="1"><g transform="translate(206.260491, 304.747948)"><g><path d="M 5.890625 -2.28125 C 5.890625 -1.539062 5.625 -0.957031 5.09375 -0.53125 C 4.5625 -0.101562 3.816406 0.109375 2.859375 0.109375 C 1.984375 0.109375 1.207031 -0.0546875 0.53125 -0.390625 L 0.53125 -2 C 1.082031 -1.757812 1.550781 -1.585938 1.9375 -1.484375 C 2.320312 -1.378906 2.675781 -1.328125 3 -1.328125 C 3.375 -1.328125 3.664062 -1.398438 3.875 -1.546875 C 4.082031 -1.691406 4.1875 -1.910156 4.1875 -2.203125 C 4.1875 -2.359375 4.140625 -2.5 4.046875 -2.625 C 3.953125 -2.757812 3.816406 -2.882812 3.640625 -3 C 3.472656 -3.113281 3.117188 -3.296875 2.578125 -3.546875 C 2.078125 -3.785156 1.703125 -4.015625 1.453125 -4.234375 C 1.203125 -4.453125 1 -4.703125 0.84375 -4.984375 C 0.695312 -5.273438 0.625 -5.613281 0.625 -6 C 0.625 -6.726562 0.867188 -7.300781 1.359375 -7.71875 C 1.859375 -8.132812 2.539062 -8.34375 3.40625 -8.34375 C 3.832031 -8.34375 4.238281 -8.289062 4.625 -8.1875 C 5.019531 -8.09375 5.429688 -7.953125 5.859375 -7.765625 L 5.296875 -6.40625 C 4.859375 -6.59375 4.492188 -6.71875 4.203125 -6.78125 C 3.910156 -6.851562 3.628906 -6.890625 3.359375 -6.890625 C 3.023438 -6.890625 2.769531 -6.8125 2.59375 -6.65625 C 2.414062 -6.507812 2.328125 -6.3125 2.328125 -6.0625 C 2.328125 -5.90625 2.363281 -5.769531 2.4375 -5.65625 C 2.507812 -5.539062 2.625 -5.429688 2.78125 -5.328125 C 2.9375 -5.222656 3.304688 -5.03125 3.890625 -4.75 C 4.660156 -4.382812 5.1875 -4.015625 5.46875 -3.640625 C 5.75 -3.273438 5.890625 -2.820312 5.890625 -2.28125 Z M 5.890625 -2.28125 "/></g></g></g><g fill="#003a8c" fill-opacity="1"><g transform="translate(216.687483, 304.747948)"><g><path d="M 7.78125 0 L 6.046875 0 L 6.046875 -3.546875 L 2.78125 -3.546875 L 2.78125 0 L 1.03125 0 L 1.03125 -8.234375 L 2.78125 -8.234375 L 2.78125 -5 L 6.046875 -5 L 6.046875 -8.234375 L 7.78125 -8.234375 Z M 7.78125 0 "/></g></g></g><g fill="#003a8c" fill-opacity="1"><g transform="translate(229.583754, 304.747948)"><g><path d="M 8.5 -4.125 C 8.5 -2.757812 8.160156 -1.710938 7.484375 -0.984375 C 6.816406 -0.253906 5.851562 0.109375 4.59375 0.109375 C 3.332031 0.109375 2.363281 -0.253906 1.6875 -0.984375 C 1.007812 -1.710938 0.671875 -2.765625 0.671875 -4.140625 C 0.671875 -5.503906 1.007812 -6.546875 1.6875 -7.265625 C 2.363281 -7.992188 3.332031 -8.359375 4.59375 -8.359375 C 5.863281 -8.359375 6.832031 -7.992188 7.5 -7.265625 C 8.164062 -6.535156 8.5 -5.488281 8.5 -4.125 Z M 2.5 -4.125 C 2.5 -3.207031 2.671875 -2.515625 3.015625 -2.046875 C 3.367188 -1.578125 3.894531 -1.34375 4.59375 -1.34375 C 5.976562 -1.34375 6.671875 -2.269531 6.671875 -4.125 C 6.671875 -5.976562 5.976562 -6.90625 4.59375 -6.90625 C 3.90625 -6.90625 3.382812 -6.671875 3.03125 -6.203125 C 2.675781 -5.734375 2.5 -5.039062 2.5 -4.125 Z M 2.5 -4.125 "/></g></g></g><g fill="#003a8c" fill-opacity="1"><g transform="translate(242.834376, 304.747948)"><g><path d="M 2.78125 -4.359375 L 3.359375 -4.359375 C 3.890625 -4.359375 4.285156 -4.460938 4.546875 -4.671875 C 4.816406 -4.890625 4.953125 -5.203125 4.953125 -5.609375 C 4.953125 -6.015625 4.84375 -6.3125 4.625 -6.5 C 4.40625 -6.695312 4.054688 -6.796875 3.578125 -6.796875 L 2.78125 -6.796875 Z M 6.71875 -5.671875 C 6.71875 -4.773438 6.441406 -4.09375 5.890625 -3.625 C 5.335938 -3.15625 4.550781 -2.921875 3.53125 -2.921875 L 2.78125 -2.921875 L 2.78125 0 L 1.03125 0 L 1.03125 -8.234375 L 3.671875 -8.234375 C 4.660156 -8.234375 5.414062 -8.015625 5.9375 -7.578125 C 6.457031 -7.148438 6.71875 -6.515625 6.71875 -5.671875 Z M 6.71875 -5.671875 "/></g></g></g></svg>